<?xml version="1.0" standalone="no"?>
<!DOCTYPE svg PUBLIC "-//W3C//DTD SVG 20010904//EN"
 "http://www.w3.org/TR/2001/REC-SVG-20010904/DTD/svg10.dtd">
<svg version="1.0" xmlns="http://www.w3.org/2000/svg"
 width="189.000000pt" height="189.000000pt" viewBox="0 0 189.000000 189.000000"
 preserveAspectRatio="xMidYMid meet">
<metadata>
Created by potrace 1.14, written by Peter Selinger 2001-2017
</metadata>
<g transform="translate(0.000000,189.000000) scale(0.100000,-0.100000)"
fill="#000000" stroke="none">
<path d="M1560 1620 c-14 -4 -45 -14 -70 -21 -25 -7 -47 -16 -50 -19 -3 -3
-22 -14 -43 -25 -53 -28 -129 -101 -166 -159 -27 -44 -31 -58 -31 -123 l0 -73
46 -45 c25 -25 51 -45 59 -45 8 0 26 -5 41 -10 l27 -11 -21 -19 c-12 -11 -28
-20 -36 -20 -18 0 -130 -60 -134 -72 -2 -4 -10 -8 -17 -8 -18 0 -152 -135
-160 -161 -4 -10 -11 -19 -16 -19 -5 0 -9 -9 -9 -19 0 -11 -4 -21 -8 -23 -34
-14 -66 -266 -42 -331 43 -114 86 -149 183 -150 83 -1 171 37 282 123 52 39
181 177 225 241 13 19 30 40 37 47 6 6 15 21 18 32 3 11 10 20 14 20 5 0 14
14 21 30 7 16 16 30 21 30 5 0 9 9 9 19 0 11 5 21 12 23 7 3 9 12 4 23 -8 22
-11 19 -96 -85 -122 -149 -338 -340 -384 -340 -9 0 -16 -4 -16 -10 0 -5 -19
-10 -42 -10 -32 0 -51 7 -73 26 -28 24 -30 30 -29 92 1 46 8 81 23 112 11 24
21 50 21 57 0 7 5 13 10 13 6 0 10 5 10 12 0 28 110 155 180 207 19 14 37 28
40 31 10 12 132 70 146 70 8 0 32 6 55 13 38 11 40 14 37 47 -3 33 -6 35 -40
38 -20 2 -45 -1 -55 -6 -13 -7 -33 -4 -70 9 -44 17 -54 26 -73 66 -21 45 -21
48 -5 99 9 29 25 63 36 75 10 12 19 26 19 30 0 5 15 23 33 40 64 62 164 121
225 132 28 6 32 4 32 -15 0 -35 -81 -130 -170 -198 -25 -19 -47 -37 -50 -40
-3 -3 -17 -13 -32 -23 -16 -10 -28 -26 -28 -38 0 -19 4 -20 37 -14 78 14 289
137 345 199 26 30 45 70 43 91 -4 43 -17 55 -88 84 -32 12 -199 14 -237 1z"/>
<path d="M390 1611 c-8 -6 -37 -11 -65 -11 -77 0 -199 -48 -252 -98 -75 -69
-93 -153 -52 -234 32 -63 59 -86 59 -50 0 41 113 181 147 182 6 0 13 4 15 8 4
10 80 45 133 62 22 7 48 17 58 22 11 5 76 10 145 10 165 2 200 -15 231 -109
13 -40 13 -52 -7 -138 -10 -44 -60 -148 -73 -153 -5 -2 -9 -9 -9 -15 0 -12
-25 -43 -84 -107 -139 -149 -250 -193 -205 -83 22 53 42 98 65 147 13 28 24
56 24 63 0 7 5 13 10 13 6 0 10 6 10 13 0 15 115 246 130 261 25 25 10 43 -45
56 -46 11 -62 11 -98 -1 -23 -7 -47 -18 -52 -24 -11 -10 -110 -209 -126 -252
-5 -13 -13 -33 -18 -45 -41 -104 -51 -133 -51 -149 0 -11 -4 -19 -9 -19 -5 0
-11 -15 -14 -32 -2 -18 -12 -60 -21 -93 -60 -209 -73 -381 -37 -476 17 -44 52
-89 70 -89 24 1 30 22 29 115 0 55 4 118 10 140 6 22 17 61 24 87 7 27 15 48
18 48 6 0 12 -8 78 -110 78 -120 169 -200 230 -200 11 0 33 12 49 28 33 31 93
115 93 131 0 6 5 11 10 11 6 0 10 5 10 11 0 6 14 30 30 54 17 24 30 46 30 49
0 4 18 36 40 72 22 36 40 72 40 80 0 24 -35 15 -52 -14 -9 -15 -30 -43 -47
-62 -17 -19 -31 -38 -31 -42 0 -4 -10 -17 -23 -30 -12 -13 -38 -43 -57 -68
-46 -59 -56 -70 -69 -70 -13 0 -141 126 -141 138 0 4 -8 17 -19 28 -43 46 -51
94 -16 94 8 0 15 5 15 10 0 6 9 10 20 10 11 0 20 5 20 10 0 6 9 10 20 10 11 0
20 4 20 9 0 5 14 14 30 21 17 7 30 15 30 19 0 4 14 15 30 25 38 22 157 139
190 186 13 19 27 37 30 40 3 3 13 19 22 35 52 95 65 232 27 295 -28 46 -70 90
-86 90 -7 0 -13 3 -13 8 0 9 -70 40 -120 54 -86 24 -328 44 -350 29z"/>
</g>
</svg>
